
		<svg xmlns="http://www.w3.org/2000/svg" xmlns:xlink="http://www.w3.org/1999/xlink" version="1.1" width="3129.87012987013" height="584.4155844155844">
			
			<g transform="scale(6.4935064935064934) translate(10, 10)">
				<defs id="SvgjsDefs1022"/><g id="SvgjsG1023" featureKey="root" fill="#fff"/><g id="SvgjsG1024" featureKey="symbol1" fill="#fff" transform="matrix(0.9462604774041202,0,0,0.9462604774041202,-57.610173735760256,-67.34185153129546)"><g><path d="M136.867,104.083l0.021-0.002l-0.211-0.594c-3.994-12.157-15.346-20.696-28.642-20.696c-1.009,0-2.032,0.051-3.042,0.152   C88.42,84.6,76.285,99.433,77.942,116.006c0.135,1.349,0.361,2.667,0.662,3.954l-0.017,0.002l0.09,0.325   c3.276,13.33,15.192,22.923,29.287,22.923c1.009,0,2.032-0.051,3.042-0.152c16.573-1.658,28.708-16.49,27.051-33.064   C137.854,107.95,137.446,105.976,136.867,104.083z M134.12,102.347l-21.702,2.171l-0.16,0.029c-0.212,0.057-0.426,0.113-0.65,0.135   c-0.139,0.014-0.275,0.021-0.412,0.021c-2.104,0-3.848-1.581-4.058-3.677c-0.224-2.24,1.417-4.245,3.656-4.469   c0.088-0.009,0.176-0.012,0.263-0.012c0.135,0,0.27,0.007,0.403,0.016l0.081,0.005l17.976-1.798   C131.457,97.053,133.001,99.595,134.12,102.347z M81.175,121.713l19.556-1.956l0.16-0.029c0.211-0.057,0.436-0.114,0.65-0.135   c2.269-0.23,4.245,1.424,4.469,3.656c0.108,1.085-0.212,2.147-0.902,2.992s-1.669,1.369-2.755,1.477   c-0.224,0.023-0.446,0.011-0.664-0.003l-0.081-0.005l-16.582,1.658C83.353,127.024,82.061,124.456,81.175,121.713z    M110.808,141.067c-0.943,0.094-1.9,0.143-2.843,0.143c-8.61,0-16.35-3.835-21.529-9.973l15.21-1.521   c0.299,0.017,0.601,0.024,0.907-0.007c1.617-0.162,3.074-0.943,4.103-2.201c1.029-1.257,1.506-2.84,1.345-4.457   c-0.332-3.324-3.268-5.786-6.657-5.447c-0.331,0.033-0.631,0.104-0.892,0.173l-19.843,1.984c-0.312-1.283-0.541-2.602-0.676-3.953   c-1.548-15.476,9.783-29.327,25.26-30.875c0.943-0.094,1.9-0.143,2.843-0.143c7.715,0,14.729,3.078,19.831,8.133l-16.363,1.637   c-0.3-0.019-0.601-0.023-0.907,0.007c-3.338,0.334-5.782,3.321-5.448,6.659c0.312,3.123,2.912,5.478,6.048,5.478   c0.202,0,0.406-0.01,0.612-0.03c0.318-0.032,0.614-0.101,0.89-0.173l22.135-2.214c0.606,1.885,1.03,3.858,1.235,5.907   C137.615,125.669,126.284,139.52,110.808,141.067z"/><path d="M146.5,87.234c-2.903,0-5.266,2.362-5.266,5.266s2.362,5.266,5.266,5.266s5.266-2.362,5.266-5.266   S149.403,87.234,146.5,87.234z M146.5,95.766c-1.801,0-3.266-1.465-3.266-3.266s1.465-3.266,3.266-3.266s3.266,1.465,3.266,3.266   S148.301,95.766,146.5,95.766z"/></g></g><g id="SvgjsG1025" featureKey="text1" fill="#fff" transform="matrix(3.7974685377999093,0,0,3.7974685377999093,93.92405070167497,-22.202531462200092)"><path d="M6.22 24.18 q-1.14 0 -2.27 -0.07 t-2.35 -0.33 l0 -13.44 q0.96 -0.18 2.1 -0.27 t2.12 -0.09 q1.32 0 2.43 0.19 t1.91 0.65 t1.25 1.21 t0.45 1.85 q0 1.66 -1.6 2.62 q1.32 0.5 1.8 1.36 t0.48 1.94 q0 2.18 -1.59 3.28 t-4.73 1.1 z M4.64 17.96 l0 3.58 q0.34 0.04 0.74 0.06 t0.88 0.02 q1.4 0 2.26 -0.4 t0.86 -1.48 q0 -0.96 -0.72 -1.37 t-2.06 -0.41 l-1.96 0 z M4.64 15.58 l1.52 0 q1.44 0 2.06 -0.37 t0.62 -1.19 q0 -0.84 -0.64 -1.18 t-1.88 -0.34 q-0.4 0 -0.86 0.01 t-0.82 0.05 l0 3.02 z M19.04 24.2 q-1.3 -0.02 -2.11 -0.28 t-1.28 -0.73 t-0.64 -1.14 t-0.17 -1.51 l0 -11.58 l2.98 -0.48 l0 11.46 q0 0.4 0.06 0.72 t0.23 0.54 t0.49 0.36 t0.86 0.18 z M30.14 23.64 q-0.76 0.22 -1.96 0.41 t-2.52 0.19 q-1.34 0 -2.23 -0.36 t-1.41 -1.01 t-0.74 -1.55 t-0.22 -1.98 l0 -5.86 l2.98 0 l0 5.5 q0 1.44 0.38 2.08 t1.42 0.64 q0.32 0 0.68 -0.03 t0.64 -0.07 l0 -8.12 l2.98 0 l0 10.16 z M32.44 18.82 q0 -1.4 0.43 -2.45 t1.13 -1.75 t1.61 -1.06 t1.87 -0.36 q2.24 0 3.54 1.37 t1.3 4.03 q0 0.26 -0.02 0.57 t-0.04 0.55 l-6.76 0 q0.1 0.92 0.86 1.46 t2.04 0.54 q0.82 0 1.61 -0.15 t1.29 -0.37 l0.4 2.42 q-0.24 0.12 -0.64 0.24 t-0.89 0.21 t-1.05 0.15 t-1.12 0.06 q-1.42 0 -2.47 -0.42 t-1.74 -1.15 t-1.02 -1.73 t-0.33 -2.16 z M39.44 17.68 q-0.02 -0.38 -0.13 -0.74 t-0.34 -0.64 t-0.58 -0.46 t-0.87 -0.18 q-0.5 0 -0.86 0.17 t-0.6 0.45 t-0.37 0.65 t-0.19 0.75 l3.94 0 z M47.16 18.66 q0 1.38 0.62 2.22 t1.84 0.84 q0.4 0 0.74 -0.03 t0.56 -0.07 l0 -5.42 q-0.28 -0.18 -0.73 -0.3 t-0.91 -0.12 q-2.12 0 -2.12 2.88 z M53.9 23.66 q-0.4 0.12 -0.92 0.23 t-1.09 0.19 t-1.16 0.13 t-1.13 0.05 q-1.3 0 -2.32 -0.38 t-1.72 -1.09 t-1.07 -1.72 t-0.37 -2.27 q0 -1.28 0.32 -2.31 t0.92 -1.75 t1.47 -1.1 t1.99 -0.38 q0.62 0 1.11 0.12 t0.99 0.34 l0 -4.76 l2.98 -0.48 l0 15.18 z M66.53999999999999 18.72 q0 1.24 -0.36 2.27 t-1.04 1.76 t-1.63 1.13 t-2.13 0.4 q-1.16 0 -2.11 -0.4 t-1.63 -1.13 t-1.06 -1.76 t-0.38 -2.27 t0.39 -2.26 t1.08 -1.74 t1.64 -1.12 t2.07 -0.4 q1.14 0 2.09 0.4 t1.63 1.12 t1.06 1.74 t0.38 2.26 z M63.5 18.72 q0 -1.38 -0.55 -2.17 t-1.57 -0.79 t-1.58 0.79 t-0.56 2.17 t0.56 2.19 t1.58 0.81 t1.57 -0.81 t0.55 -2.19 z M68.74 10.86 l2.98 -0.48 l0 3.1 l3.58 0 l0 2.48 l-3.58 0 l0 3.7 q0 0.94 0.33 1.5 t1.33 0.56 q0.48 0 0.99 -0.09 t0.93 -0.25 l0.42 2.32 q-0.54 0.22 -1.2 0.38 t-1.62 0.16 q-1.22 0 -2.02 -0.33 t-1.28 -0.92 t-0.67 -1.43 t-0.19 -1.86 l0 -8.84 z M80.63999999999999 22.42 q0 0.9 -0.57 1.37 t-1.29 0.47 t-1.29 -0.47 t-0.57 -1.37 t0.57 -1.37 t1.29 -0.47 t1.29 0.47 t0.57 1.37 z M86.66 21.92 q0.44 0 0.84 -0.02 t0.64 -0.06 l0 -2.26 q-0.18 -0.04 -0.54 -0.08 t-0.66 -0.04 q-0.42 0 -0.79 0.05 t-0.65 0.19 t-0.44 0.38 t-0.16 0.6 q0 0.7 0.47 0.97 t1.29 0.27 z M86.41999999999999 13.2 q1.32 0 2.2 0.3 t1.41 0.86 t0.75 1.36 t0.22 1.78 l0 6.2 q-0.64 0.14 -1.78 0.33 t-2.76 0.19 q-1.02 0 -1.85 -0.18 t-1.43 -0.59 t-0.92 -1.07 t-0.32 -1.62 q0 -0.92 0.37 -1.56 t0.99 -1.02 t1.42 -0.55 t1.66 -0.17 q0.58 0 1.03 0.05 t0.73 0.13 l0 -0.28 q0 -0.76 -0.46 -1.22 t-1.6 -0.46 q-0.76 0 -1.5 0.11 t-1.28 0.31 l-0.38 -2.4 q0.26 -0.08 0.65 -0.17 t0.85 -0.16 t0.97 -0.12 t1.03 -0.05 z M96.67999999999999 24 l-2.98 0 l0 -10.52 l2.98 0 l0 10.52 z M96.96 10.44 q0 0.82 -0.53 1.29 t-1.25 0.47 t-1.25 -0.47 t-0.53 -1.29 t0.53 -1.29 t1.25 -0.47 t1.25 0.47 t0.53 1.29 z"/></g>
			</g>
		</svg>
	